<svg xmlns="http://www.w3.org/2000/svg" version="1.1" xmlns:xlink="http://www.w3.org/1999/xlink" xmlns:svgjs="http://svgjs.dev/svgjs" width="1000" height="1000"><style>
    #light-icon {
      display: inline;
    }
    #dark-icon {
      display: none;
    }

    @media (prefers-color-scheme: dark) {
      #light-icon {
        display: none;
      }
      #dark-icon {
        display: inline;
      }
    }
  </style><g id="light-icon"><svg xmlns="http://www.w3.org/2000/svg" version="1.1" xmlns:xlink="http://www.w3.org/1999/xlink" xmlns:svgjs="http://svgjs.dev/svgjs" width="1000" height="1000"><g><g transform="matrix(1.953125,0,0,1.953125,0,0)"><svg xmlns="http://www.w3.org/2000/svg" version="1.1" xmlns:xlink="http://www.w3.org/1999/xlink" xmlns:svgjs="http://svgjs.dev/svgjs" width="512" height="512"><svg width="512" height="512" viewBox="0 0 512 512" fill="none" xmlns="http://www.w3.org/2000/svg">
<path d="M16 342.056V170.512H52.785V182.714H28.2019V243.903H52.785V256.105H28.2019V329.675H52.785V341.877H16V342.056ZM70.3701 342.056V170.512H82.572V342.056H70.3701ZM126.714 342.056H102.131V170.512H126.714C140.172 170.512 151.297 181.458 151.297 195.095V231.88C151.297 239.237 148.067 245.877 143.222 250.183C148.067 254.669 151.297 261.129 151.297 268.486V317.473C151.297 330.931 140.351 342.056 126.714 342.056ZM139.095 194.916C139.095 188.815 132.994 182.714 126.893 182.714H114.692V243.903H126.893C132.994 243.903 139.095 237.802 139.095 231.701V194.916ZM139.095 268.486C139.095 262.385 132.994 256.284 126.893 256.284H114.692V329.854H126.893C132.994 329.854 139.095 323.753 139.095 317.652V268.665V268.486ZM170.856 342.056V170.512H207.641V182.714H183.058V243.903H207.641V256.105H183.058V329.675H207.641V341.877H170.856V342.056ZM281.75 344.568C268.292 344.568 257.166 333.622 257.166 319.985V268.486C257.166 261.129 260.396 254.49 265.241 250.183C260.396 245.697 257.166 239.237 257.166 231.88V192.583C257.166 179.125 268.112 168 281.75 168C295.387 168 306.333 178.946 306.333 192.583V231.88C306.333 239.237 303.103 245.877 297.72 250.183C303.103 254.669 306.333 261.129 306.333 268.486V319.985C306.333 333.443 295.387 344.568 281.75 344.568ZM293.951 192.583C293.951 185.765 288.568 180.381 281.75 180.381C274.931 180.381 269.548 185.765 269.548 192.583V231.88C269.548 238.699 274.931 244.082 281.75 244.082C288.568 244.082 293.951 238.699 293.951 231.88V192.583ZM293.951 268.486C293.951 261.667 288.568 256.284 281.75 256.284C274.931 256.284 269.548 261.667 269.548 268.486V319.985C269.548 326.804 274.931 332.187 281.75 332.187C288.568 332.187 293.951 326.804 293.951 319.985V268.486ZM427.454 286.968V342.056H415.252V286.968H378.467V240.314L415.252 170.512H427.454V274.587H439.656V286.789H427.454V286.968ZM415.252 194.557L390.669 242.288V274.587H415.252V194.378V194.557ZM471.596 344.568C458.138 344.568 447.013 333.622 447.013 319.985V311.372H459.215V319.985C459.215 326.804 464.598 332.187 471.417 332.187C478.236 332.187 483.619 326.804 483.619 319.985V268.486C483.619 262.385 477.518 256.284 471.417 256.284H453.114V170.512H496V182.714H465.316V243.903H471.417C484.875 243.903 496 254.849 496 268.486V319.985C496 333.443 485.054 344.568 471.417 344.568H471.596ZM320.867 192.583C320.867 179.125 331.813 168 345.45 168C359.088 168 370.034 178.946 370.034 192.583V319.985C370.034 333.443 359.088 344.568 345.45 344.568C331.813 344.568 320.867 333.622 320.867 319.985V192.583ZM357.652 231.163V192.404C357.652 185.585 352.269 180.202 345.45 180.202C338.632 180.202 333.249 185.585 333.249 192.404V255.566L357.832 230.983L357.652 231.163ZM333.249 269.024V319.985C333.249 326.804 338.632 332.187 345.45 332.187C352.269 332.187 357.652 326.804 357.652 319.985V244.441L333.069 269.024H333.249Z" fill="#003C2E"></path>
</svg></svg></g></g></svg></g><g id="dark-icon"><svg xmlns="http://www.w3.org/2000/svg" version="1.1" xmlns:xlink="http://www.w3.org/1999/xlink" xmlns:svgjs="http://svgjs.dev/svgjs" width="1000" height="1000"><g clip-path="url(#SvgjsClipPath1030)"><rect width="1000" height="1000" fill="#ffffff"></rect><g transform="matrix(1.5625,0,0,1.5625,100,100)"><svg xmlns="http://www.w3.org/2000/svg" version="1.1" xmlns:xlink="http://www.w3.org/1999/xlink" xmlns:svgjs="http://svgjs.dev/svgjs" width="512" height="512"><svg width="512" height="512" viewBox="0 0 512 512" fill="none" xmlns="http://www.w3.org/2000/svg">
<path d="M16 342.056V170.512H52.785V182.714H28.2019V243.903H52.785V256.105H28.2019V329.675H52.785V341.877H16V342.056ZM70.3701 342.056V170.512H82.572V342.056H70.3701ZM126.714 342.056H102.131V170.512H126.714C140.172 170.512 151.297 181.458 151.297 195.095V231.88C151.297 239.237 148.067 245.877 143.222 250.183C148.067 254.669 151.297 261.129 151.297 268.486V317.473C151.297 330.931 140.351 342.056 126.714 342.056ZM139.095 194.916C139.095 188.815 132.994 182.714 126.893 182.714H114.692V243.903H126.893C132.994 243.903 139.095 237.802 139.095 231.701V194.916ZM139.095 268.486C139.095 262.385 132.994 256.284 126.893 256.284H114.692V329.854H126.893C132.994 329.854 139.095 323.753 139.095 317.652V268.665V268.486ZM170.856 342.056V170.512H207.641V182.714H183.058V243.903H207.641V256.105H183.058V329.675H207.641V341.877H170.856V342.056ZM281.75 344.568C268.292 344.568 257.166 333.622 257.166 319.985V268.486C257.166 261.129 260.396 254.49 265.241 250.183C260.396 245.697 257.166 239.237 257.166 231.88V192.583C257.166 179.125 268.112 168 281.75 168C295.387 168 306.333 178.946 306.333 192.583V231.88C306.333 239.237 303.103 245.877 297.72 250.183C303.103 254.669 306.333 261.129 306.333 268.486V319.985C306.333 333.443 295.387 344.568 281.75 344.568ZM293.951 192.583C293.951 185.765 288.568 180.381 281.75 180.381C274.931 180.381 269.548 185.765 269.548 192.583V231.88C269.548 238.699 274.931 244.082 281.75 244.082C288.568 244.082 293.951 238.699 293.951 231.88V192.583ZM293.951 268.486C293.951 261.667 288.568 256.284 281.75 256.284C274.931 256.284 269.548 261.667 269.548 268.486V319.985C269.548 326.804 274.931 332.187 281.75 332.187C288.568 332.187 293.951 326.804 293.951 319.985V268.486ZM427.454 286.968V342.056H415.252V286.968H378.467V240.314L415.252 170.512H427.454V274.587H439.656V286.789H427.454V286.968ZM415.252 194.557L390.669 242.288V274.587H415.252V194.378V194.557ZM471.596 344.568C458.138 344.568 447.013 333.622 447.013 319.985V311.372H459.215V319.985C459.215 326.804 464.598 332.187 471.417 332.187C478.236 332.187 483.619 326.804 483.619 319.985V268.486C483.619 262.385 477.518 256.284 471.417 256.284H453.114V170.512H496V182.714H465.316V243.903H471.417C484.875 243.903 496 254.849 496 268.486V319.985C496 333.443 485.054 344.568 471.417 344.568H471.596ZM320.867 192.583C320.867 179.125 331.813 168 345.45 168C359.088 168 370.034 178.946 370.034 192.583V319.985C370.034 333.443 359.088 344.568 345.45 344.568C331.813 344.568 320.867 333.622 320.867 319.985V192.583ZM357.652 231.163V192.404C357.652 185.585 352.269 180.202 345.45 180.202C338.632 180.202 333.249 185.585 333.249 192.404V255.566L357.832 230.983L357.652 231.163ZM333.249 269.024V319.985C333.249 326.804 338.632 332.187 345.45 332.187C352.269 332.187 357.652 326.804 357.652 319.985V244.441L333.069 269.024H333.249Z" fill="#003C2E"></path>
</svg></svg></g></g><defs><clipPath id="SvgjsClipPath1030"><rect width="1000" height="1000" x="0" y="0" rx="200" ry="200"></rect></clipPath></defs></svg></g></svg>